HIERARCHY
ROOT hip
{
	OFFSET 0.000000 0.000000 0.000000 
	CHANNELS 6 Xposition Yposition Zposition Xrotation Zrotation Yrotation
	JOINT abdomen
	{
		OFFSET 0.000000 3.402643 0.000000 
		CHANNELS 3 Xrotation Zrotation Yrotation
		JOINT chest
		{
			OFFSET 0.000000 8.438565 -0.680529 
			CHANNELS 3 Xrotation Zrotation Yrotation
			JOINT neck
			{
				OFFSET 0.000000 10.207942 -0.272212 
				CHANNELS 3 Xrotation Zrotation Yrotation
				JOINT head
				{
					OFFSET 0.000000 3.130431 0.000000 
					CHANNELS 3 Xrotation Zrotation Yrotation
					End Site
					{
						OFFSET 0.000000 3.130435 0.000000 
					}
				}
			}
			JOINT lCollar
			{
				OFFSET 3.470700 6.669187 -0.816635 
				CHANNELS 3 Yrotation Zrotation Xrotation
				JOINT lShldr
				{
					OFFSET 3.198488 0.000000 0.000000 
					CHANNELS 3 Zrotation Yrotation Xrotation
					JOINT lForeArm
					{
						OFFSET 10.139888 0.000000 0.000000 
						CHANNELS 3 Yrotation Zrotation Xrotation
						JOINT lHand
						{
							OFFSET 8.370511 0.000000 0.000000 
							CHANNELS 3 Zrotation Yrotation Xrotation
							End Site
							{
								OFFSET 4.083176 0.000000 0.000000 
							}
						}
					}
				}
			}
			JOINT rCollar
			{
				OFFSET -3.470700 6.669187 -0.816635 
				CHANNELS 3 Yrotation Zrotation Xrotation
				JOINT rShldr
				{
					OFFSET -3.198488 0.000000 0.000000 
					CHANNELS 3 Zrotation Yrotation Xrotation
					JOINT rForeArm
					{
						OFFSET -10.139888 0.000000 0.000000 
						CHANNELS 3 Yrotation Zrotation Xrotation
						JOINT rHand
						{
							OFFSET -8.370511 0.000000 0.000000 
							CHANNELS 3 Zrotation Yrotation Xrotation
							End Site
							{
								OFFSET -4.083176 0.000000 0.000000 
							}
						}
					}
				}
			}
		}
	}
	JOINT lThigh
	{
		OFFSET 5.308129 -1.633274 1.361059 
		CHANNELS 3 Xrotation Zrotation Yrotation
		JOINT lShin
		{
			OFFSET -2.041588 -20.007561 0.000000 
			CHANNELS 3 Xrotation Zrotation Yrotation
			JOINT lFoot
			{
				OFFSET 0.000000 -19.190928 -1.224953 
				CHANNELS 3 Xrotation Yrotation Zrotation
				End Site
				{
					OFFSET 0.000000 -2.449906 4.627600 
				}
			}
		}
	}
	JOINT rThigh
	{
		OFFSET -5.308129 -1.633274 1.361059 
		CHANNELS 3 Xrotation Zrotation Yrotation
		JOINT rShin
		{
			OFFSET 2.041588 -20.007561 0.000000 
			CHANNELS 3 Xrotation Zrotation Yrotation
			JOINT rFoot
			{
				OFFSET 0.000000 -19.190928 -1.224953 
				CHANNELS 3 Xrotation Yrotation Zrotation
				End Site
				{
					OFFSET 0.000000 -2.449906 4.627600 
				}
			}
		}
	}
}
MOTION
Frames: 11
Frame Time: 0.033333
-56.802109 6.039907 33.383888 -96.935547 86.123940 -6.119266 0.000000 0.000000 0.000000 -1.056004 2.860843 0.259854 -8.256753 1.709062 -6.877061 9.766363 -2.040596 -3.957750 8.955322 3.967093 -0.888581 -43.092644 19.532825 48.457119 -57.083817 -12.281447 41.087482 0.242315 1.017322 -3.462135 -7.004264 1.664947 -0.120458 38.920876 -19.530893 55.691353 58.262184 13.445410 44.830349 -6.521375 -8.234820 -3.291982 4.772583 12.875806 11.023796 4.107556 -4.050870 -1.935357 -3.765996 -0.199834 6.335741 -0.908339 -9.863946 -8.269288 14.079807 0.662441 7.313555 5.648909 -0.077590 -1.778301 
-56.812046 6.060643 33.383385 -96.988396 86.153023 -6.041029 0.000000 0.000000 0.000000 -1.095096 2.841279 0.170386 -8.245273 1.705682 -6.974165 9.482969 -2.021246 -3.966893 8.852086 4.082139 -0.919466 -43.241425 19.547054 48.461864 -56.907677 -12.300646 41.114677 0.346523 0.906162 -3.467888 -7.033415 1.688598 -0.144809 38.944538 -19.638151 55.653034 58.211681 13.444581 44.520885 -6.830984 -8.245684 -3.279098 4.802516 12.848171 10.992284 4.046711 -4.029035 -1.950211 -3.825473 -0.223377 6.316527 -0.908727 -9.922875 -8.272886 14.170105 0.672729 7.240530 5.731100 -0.068683 -1.703151 
-56.833817 6.046148 33.391815 -95.514626 86.144241 -4.680418 0.000000 0.000000 0.000000 -1.104855 2.821742 0.209340 -8.384153 1.704320 -6.852221 9.717413 -1.903937 -3.894739 9.089065 4.126303 -0.942868 -43.292988 19.349091 48.515934 -56.861435 -12.319064 41.127041 0.390083 0.830507 -3.460488 -6.896727 1.669752 -0.161213 39.018215 -19.706621 55.472328 58.112289 13.359360 44.911819 -6.527600 -8.000330 -3.308216 4.772242 12.856090 11.011714 3.937242 -4.085682 -1.845716 -3.768602 -0.193804 6.211433 -1.133058 -9.901440 -8.237659 14.324643 0.671990 7.295876 5.718834 -0.069589 -1.775280 
-56.848415 6.048449 33.375961 -95.266136 86.175240 -4.455054 0.000000 0.000000 0.000000 -1.114633 2.821732 0.238156 -8.473796 1.669678 -6.753424 10.127804 -1.913386 -3.859797 9.048435 4.067262 -0.939880 -43.252434 19.321199 48.516964 -56.875072 -12.316777 40.964298 0.391252 0.811011 -3.460348 -6.847163 1.729845 -0.175176 39.008568 -19.707201 55.453171 58.116707 13.345856 44.905499 -6.406440 -8.070574 -3.311798 4.765476 12.734328 10.838624 3.877842 -3.938686 -1.790390 -3.777262 -0.188774 6.160842 -1.113416 -9.906214 -8.218533 14.239699 0.604239 7.265626 5.659436 -0.072348 -1.776547 
-56.843506 6.026427 33.367527 -94.392227 86.180168 -3.564445 0.000000 0.000000 0.000000 -1.143965 2.821704 0.197652 -8.464233 1.720165 -6.749619 10.069409 -2.167260 -3.756949 8.944714 4.170970 -0.978266 -43.459370 19.511433 48.343155 -56.819721 -12.232824 41.001991 0.437522 0.852919 -3.463436 -6.847290 1.753087 -0.201136 38.954472 -19.581245 55.505390 58.131741 13.372341 45.161770 -6.410402 -8.012112 -3.311796 4.663785 12.571298 10.628180 3.800745 -3.773188 -1.411615 -3.660784 -0.206306 6.077365 -1.133062 -9.876696 -8.177026 14.125020 0.564993 7.217720 5.641356 -0.070471 -1.735049 
-56.839985 6.036093 33.355068 -93.974861 86.201790 -3.084894 0.000000 0.000000 0.000000 -1.183085 2.831429 0.107637 -8.525209 1.825982 -6.648178 10.069565 -2.323459 -3.516826 8.919621 4.284846 -1.016300 -43.617180 19.524582 48.406170 -56.787209 -12.223585 41.091389 0.262922 0.998988 -3.463319 -6.858255 1.718616 -0.233413 38.953838 -19.580589 55.554211 58.078644 13.402081 44.730934 -6.633822 -8.007405 -3.304110 4.702700 12.433578 10.495675 3.656301 -3.735846 -1.547108 -3.790795 -0.199329 5.966358 -1.084129 -9.920620 -8.220014 14.017135 0.604059 7.197666 5.700942 -0.076567 -1.695642 
-56.840740 6.068233 33.337955 -94.164482 86.240059 -3.260914 0.000000 0.000000 0.000000 -1.192833 2.802128 0.117529 -8.523151 1.771139 -6.748726 10.069596 -2.352746 -3.625002 8.948334 4.234490 -1.020350 -43.567707 19.516794 48.388252 -56.776573 -12.232209 41.017956 0.524429 0.867921 -3.468739 -6.837838 1.748658 -0.240126 38.947548 -19.660172 55.464504 58.118584 13.328267 44.889881 -6.432104 -8.121219 -3.304958 4.831448 12.232270 10.240562 3.503207 -3.534000 -2.021571 -3.811554 -0.176904 5.764602 -0.879384 -9.929205 -8.244350 13.784049 0.584563 7.166301 5.485296 -0.062397 -1.723139 
-56.833817 6.086809 33.308002 -94.669556 86.286484 -3.710957 0.000000 0.000000 0.000000 -1.183036 2.782611 0.059815 -8.561526 1.764750 -6.798881 10.147841 -2.401472 -3.619766 8.909410 4.246744 -1.010886 -43.609051 19.554787 48.358055 -56.809280 -12.188455 40.937927 0.534151 0.868505 -3.469327 -6.866211 1.786845 -0.223918 38.876369 -19.632059 55.548107 58.218628 13.341378 44.752903 -6.473104 -8.231608 -3.299172 4.965694 12.013479 10.023576 3.284677 -3.413552 -2.434954 -3.887639 -0.192740 5.632403 -0.732696 -9.955623 -8.278414 13.629513 0.584272 7.110991 5.199219 -0.061256 -1.745049 
-56.834572 6.080602 33.286987 -94.706749 86.315681 -3.662067 0.000000 0.000000 0.000000 -1.192803 2.772838 0.030247 -8.581808 1.732473 -6.755998 10.274622 -2.157286 -3.598403 8.923665 4.372283 -1.032169 -43.784138 19.470442 48.350830 -56.748772 -12.210774 41.081600 0.477579 0.835757 -3.465795 -6.875135 1.838079 -0.236386 38.798706 -19.673893 55.532112 58.248371 13.308972 44.549797 -6.494398 -8.203662 -3.298805 4.704509 11.852194 9.806651 3.691727 -3.333324 -2.539557 -3.869334 -0.181522 5.647331 -0.596174 -9.999183 -8.303717 13.416067 0.593949 7.054152 5.093032 -0.058965 -1.693608 
-56.834702 6.081965 33.266602 -94.579887 86.335938 -3.466392 0.000000 0.000000 0.000000 -1.231921 2.782561 0.018382 -8.572515 1.783721 -6.742565 10.157517 -2.313603 -3.529889 8.827395 4.387345 -1.066105 -43.842937 19.458473 48.358398 -56.708069 -12.246132 41.060612 0.481445 0.933821 -3.466377 -6.942947 1.920598 -0.263794 38.651264 -19.670176 55.439949 58.268353 13.308600 44.934307 -6.393729 -7.971854 -3.310759 4.049083 11.644494 9.502608 4.754930 -3.148444 -1.669229 -3.538940 -0.180102 5.821836 -0.468956 -10.009949 -8.336578 13.211383 0.622999 7.009216 4.926460 -0.052485 -1.692474 
-56.835201 6.102100 33.222683 -95.425873 86.390053 -4.258782 0.000000 0.000000 0.000000 -1.183036 2.782611 -0.008545 -8.640026 1.907960 -6.841331 10.314531 -2.791725 -3.452878 8.862937 4.326822 -1.011722 -43.802437 19.440115 48.379066 -56.764839 -12.219895 41.114071 0.476760 1.011806 -3.466537 -6.912507 1.953648 -0.211069 38.565060 -19.798716 55.529648 58.260460 13.342517 44.470623 -6.817300 -8.019649 -3.294321 3.855216 11.373726 9.279350 5.081071 -2.984963 -0.935384 -3.116720 -0.172906 5.891069 -0.293760 -10.079642 -8.403947 13.092271 0.691798 6.991130 4.611056 -0.038203 -1.741017 
